# AST/ASF file generated using VICON BodyLanguage
# -----------------------------------------------
:version 1.10
:name VICON
:units
  mass 1.0
  length 0.45
  angle deg
:documentation
   .ast/.asf automatically generated from VICON data using
   VICON BodyBuilder and BodyLanguage model FoxedUp or BRILLIANT.MOD
:root
   order TX TY TZ RX RY RZ
   axis XYZ
   position 0 0 0  
   orientation 0 0 0 
:bonedata
  begin
     id 1 
     name lhipjoint
     direction 0.61886 -0.69539 0.365302 
     length 2.20474 
     axis 0 0 0  XYZ
  end
  begin
     id 2 
     name lfemur
     direction 0.34202 -0.939693 0  
     length 6.65149  
     axis 0 0 20  XYZ
    dof rx ry rz
    limits (-160.0 20.0)
           (-70.0 70.0)
           (-60.0 70.0)
  end
  begin
     id 3 
     name ltibia
     direction 0.34202 -0.939693 0   
     length 6.35814   
     axis 0 0 20   XYZ
    dof rx
    limits (-10.0 170.0)
  end
  begin
     id 4 
     name lfoot
     direction 0.101224 -0.278109 0.955201   
     length 2.18766   
     axis -90 7.62852e-016 20   XYZ
    dof rx rz
    limits (-45.0 90.0)
           (-70.0 20.0)
  end
  begin
     id 5 
     name ltoes
     direction 1.53524e-011 -4.21877e-011 1   
     length 1.09206   
     axis -90 7.62852e-016 20   XYZ
    dof rx
    limits (-90.0 20.0)
  end
  begin
     id 6 
     name rhipjoint
     direction -0.600207 -0.708087 0.371972   
     length 2.1652  
     axis 0 0 0  XYZ 
  end
  begin
     id 7 
     name rfemur
     direction -0.34202 -0.939693 0   
     length 6.54691   
     axis 0 0 -20   XYZ
    dof rx ry rz
    limits (-160.0 20.0)
           (-70.0 70.0)
           (-70.0 60.0)
  end
  begin
     id 8 
     name rtibia
     direction -0.34202 -0.939693 0   
     length 6.37474   
     axis 0 0 -20   XYZ
    dof rx
    limits (-10.0 170.0)
 end
 begin
     id 9 
     name rfoot
     direction -0.111266 -0.3057 0.945604   
     length 2.00903  
     axis -90 -7.62852e-016 -20   XYZ
    dof rx rz
    limits (-45.0 90.0)
           (-20.0 70.0)
  end
  begin
     id 10 
     name rtoes
     direction -1.5362e-011 -4.21913e-011 1   
     length 1.00221   
     axis -90 -7.62852e-016 -20   XYZ
    dof rx
    limits (-90.0 20.0)
  end
  begin
     id 11 
     name lowerback
     direction -0.0224561 0.999731 -0.00577314   
     length 2.10409   
     axis 0 0 0   XYZ
    dof rx ry rz
    limits (-20.0 45.0)
           (-30.0 30.0)
           (-30.0 30.0)
  end
  begin
     id 12 
     name upperback
     direction 0.0213126 0.999185 -0.0342817   
     length 2.09783   
     axis 0 0 0   XYZ
    dof rx ry rz
    limits (-20.0 45.0)
           (-30.0 30.0)
           (-30.0 30.0)
  end
  begin
     id 13 
     name thorax
     direction 0.0312356 0.999036 -0.0308451   
     length 2.09788   
     axis 0 0 0   XYZ
    dof rx ry rz
    limits (-20.0 45.0)
           (-30.0 30.0)
           (-30.0 30.0)
  end
  begin
     id 14 
     name lowerneck
     direction -0.0114419 0.996481 0.0830329   
     length 1.38575   
     axis 0 0 0   XYZ
    dof rx ry rz
    limits (-20.0 45.0)
           (-30.0 30.0)
           (-30.0 30.0)
  end
  begin
     id 15 
     name upperneck
     direction -0.0075675 0.996187 -0.0869092   
     length 1.39401   
     axis 0 0 0   XYZ
    dof rx ry rz
    limits (-20.0 45.0)
           (-30.0 30.0)
           (-30.0 30.0)
  end
  begin
     id 16
     name head
     direction -0.00222073 0.999264 -0.0382974  
     length 1.3964  
     axis 0 0 0   XYZ
    dof rx ry rz
    limits (-20.0 45.0)
           (-30.0 30.0)
           (-30.0 30.0)
  end
  begin
     id 17 
     name lclavicle
     direction 0.965962 0.222138 0.132556  
     length 2.81514  
     axis 0 0 0   XYZ
    dof ry rz
    limits (-20.0 10.0)
           (0.0 20.0)
  end
  begin
     id 18 
     name lhumerus
     direction 1 -4.48972e-011 7.03471e-018   
     length 4.47366   
     axis 180 -30 -90   XYZ
    dof rx ry rz
    limits (-60.0 90.0)
           (-90.0 90.0)
           (-90.0 90.0)
  end
  begin
     id 19
     name lradius
     direction 1 -4.48951e-011 -6.22192e-028   
     length 3.19948   
     axis 180 -30 -90   XYZ
    dof rx
    limits (-10.0 170.0)
  end
  begin
     id 20
     name lwrist
     direction 1 -4.48967e-011 -1.24264e-027   
     length 1.59974   
     axis 1.40095e-015 90 90   XYZ
    dof ry
    limits (-180.0 0.0)
 end
  begin
     id 21 
     name lhand
     direction 1 -4.4897e-011 -2.48528e-027   
     length 0.492667   
     axis 1.58582e-015 90 90   XYZ
    dof rx rz
    limits (-90.0 90.0)
           (-45.0 45.0)
  end
  begin
     id 22 
     name lfingers
     direction 1 -4.48996e-011 -4.97056e-027   
     length 0.397201   
     axis 3.17164e-015 90 90   XYZ
    dof rx
    limits (0.0 90.0)
  end
  begin
     id 23
     name lthumb
     direction 0.707107 -6.34981e-011 0.707107   
     length 0.570303   
     axis -90 45 2.85299e-015   XYZ
    dof rx rz
    limits (-45.0 45.0)
           (-45.0 45.0)
  end
  begin
     id 24 
     name rclavicle
     direction -0.961164 0.229034 0.153972   
     length 3.09348  
     axis 0 0 0   XYZ 
    dof ry rz
    limits (-10.0 20.0)
           (-20.0 0.0)
  end
  begin
     id 25 
     name rhumerus
     direction -1 -4.48971e-011 -9.06263e-028  
     length 4.3269   
     axis 180 30 90   XYZ
    dof rx ry rz
    limits (-90.0 60.0)
           (-90.0 90.0)
           (-90.0 90.0)
  end
  begin
     id 26 
     name rradius
     direction -1 -4.48953e-011 1.44659e-027   
     length 3.1896   
     axis 180 30 90   XYZ
    dof rx
    limits (-10.0 170.0)
  end
  begin
     id 27 
     name rwrist
     direction -1 -4.48988e-011 -1.24264e-027   
     length 1.5948   
     axis 1.40095e-015 -90 -90   XYZ
    dof ry
    limits (-180.0 0.0)
  end
  begin
     id 28
     name rhand
     direction -1 -4.49033e-011 -2.48528e-027   
     length 0.464496   
     axis 1.58582e-015 -90 -90   XYZ
    dof rx rz
    limits (-90.0 90.0)
           (-45.0 45.0)
  end
  begin
     id 29
     name rfingers
     direction -1 -4.48905e-011 -4.97056e-027   
     length 0.374489   
     axis 3.17164e-015 -90 -90   XYZ
    dof rx
    limits (0.0 90.0)
  end
  begin
     id 30
     name rthumb
     direction -0.707107 -6.34909e-011 0.707107   
     length 0.537693   
     axis -90 -45 -2.85299e-015   XYZ
    dof rx rz
    limits (-45.0 45.0)
           (-45.0 45.0)
  end
:hierarchy
  begin
    root lhipjoint rhipjoint lowerback
    lhipjoint lfemur
    lfemur ltibia
    ltibia lfoot
    lfoot ltoes
    rhipjoint rfemur
    rfemur rtibia
    rtibia rfoot
    rfoot rtoes
    lowerback upperback
    upperback thorax
    thorax lowerneck lclavicle rclavicle
    lowerneck upperneck
    upperneck head
    lclavicle lhumerus
    lhumerus lradius
    lradius lwrist
    lwrist lhand lthumb
    lhand lfingers
    rclavicle rhumerus
    rhumerus rradius
    rradius rwrist
    rwrist rhand rthumb
    rhand rfingers
  end

#!OML:ASF G:\acrobat\cartwheel_test 2\Patient 1\Session 2\acrobat4.ASF
:FULLY-SPECIFIED
:DEGREES
557
root 7.23716 16.742 11.1719 -348.649 3.76491 -5.21225
lowerback 16.1143 -0.788542 1.18497
upperback 7.54475 -0.67659 6.54757
thorax -0.91961 -0.427743 6.38768
lowerneck -14.3698 4.91727 7.1358
upperneck 13.4504 4.97731 0.836682
head 6.63198 2.82957 -0.386703
rclavicle 1.82882e-014 -6.36111e-014
rhumerus -8.34542 10.7112 -47.13
rradius 41.8001
rwrist 1.80263
rhand -11.7148 -1105.83
rfingers 7.12502
rthumb 14.3318 -55.3159
lclavicle 1.82882e-014 -6.36111e-014
lhumerus 25.2596 -24.1002 66.9049
lradius 68.801
lwrist 27.6612
lhand -37.2956 -358.173
lfingers 7.12502
lthumb -10.3598 -328.448
rfemur -136.094 -3.65977 34.8894
rtibia 128.957
rfoot -8.34621 -9.77817
rtoes 2.65892
lfemur -10.7496 -3.36328 -15.9549
ltibia 36.6292
lfoot 184.799 -166.084
ltoes -30.6597
558
root 7.23152 17.1585 11.3045 -347.018 3.80811 -5.24884
lowerback 17.4676 -1.07677 2.08387
upperback 7.00393 -0.79085 6.90095
thorax -2.20029 -0.454269 6.32751
lowerneck -14.7708 5.23631 7.58097
upperneck 13.2678 5.48631 -0.421513
head 6.70255 2.98676 -0.799667
rclavicle -3.26007e-014 6.91771e-014
rhumerus -7.4916 11.9045 -45.8945
rradius 42.8636
rwrist 0.222086
rhand -11.3211 -1106.07
rfingers 7.12502
rthumb 14.7112 -55.5267
lclavicle -3.26007e-014 6.91771e-014
lhumerus 26.5082 -24.389 66.3546
lradius 69.672
lwrist 27.7989
lhand -36.8616 -358.838
lfingers 7.12502
lthumb -9.94109 -329.093
rfemur -133.158 -3.55405 34.3835
rtibia 127.343
rfoot -9.93246 -10.3129
rtoes 2.99044
lfemur -11.2341 -5.85858 -16.3285
ltibia 33.3396
lfoot 184.525 -162.351
ltoes -29.9137
559
root 7.21058 17.566 11.4352 -345.453 4.04263 -4.88439
lowerback 18.7605 -1.40731 2.49903
upperback 6.4756 -1.01154 7.15734
thorax -3.42182 -0.545123 6.47991
lowerneck -15.0027 5.51178 7.60096
upperneck 12.763 5.95009 -1.11391
head 6.6166 3.14441 -0.975445
rclavicle -4.53229e-014 6.91771e-014
rhumerus -6.63983 13.5726 -44.452
rradius 44.1519
rwrist -1.65365
rhand -11.7739 -1105.49
rfingers 7.12502
rthumb 14.2749 -54.9769
lclavicle -4.53229e-014 6.91771e-014
lhumerus 28.1786 -24.8171 65.2804
lradius 70.0679
lwrist 27.8698
lhand -36.3454 -359.103
lfingers 7.12502
lthumb -9.44303 -329.335
rfemur -130.445 -3.60623 33.5604
rtibia 125.73
rfoot -11.5411 -10.7694
rtoes 4.57376
lfemur -12.2415 -7.03055 -17.0346
ltibia 31.0451
lfoot 183.662 -160.847
ltoes -15.8811
560
root 7.17353 17.9522 11.5726 -344.094 4.34895 -4.21667
lowerback 19.8302 -1.67001 2.59431
upperback 6.10475 -1.22386 7.20972
thorax -4.35948 -0.635356 6.59415
lowerneck -15.4157 5.62725 7.24018
upperneck 12.3569 6.12194 -0.929192
head 6.54345 3.21827 -0.835693
rclavicle -1.59028e-015 -6.83819e-014
rhumerus -5.93085 15.0622 -43.0788
rradius 45.3156
rwrist -3.3767
rhand -11.595 -1104.61
rfingers 7.12502
rthumb 14.4472 -54.0894
lclavicle -1.59028e-015 -6.83819e-014
lhumerus 30.6796 -25.4713 63.6
lradius 69.7815
lwrist 27.6163
lhand -35.5601 -359.327
lfingers 7.12502
lthumb -8.68535 -329.525
rfemur -127.849 -3.70413 32.5692
rtibia 124.219
rfoot -13.1733 -11.4146
rtoes 5.71732
lfemur -13.9094 -4.94303 -18.187
ltibia 30.1298
lfoot 184.736 -162.516
ltoes -13.3326
561
root 7.12766 18.3271 11.7144 -342.961 4.58582 -3.37555
lowerback 20.5841 -1.84266 2.47523
upperback 5.95168 -1.40869 7.09494
thorax -4.90015 -0.715902 6.62571
lowerneck -16.1606 5.64253 6.58131
upperneck 12.3741 6.09872 -0.100938
head 6.62439 3.24307 -0.450456
rclavicle 7.95139e-015 -1.82882e-014
rhumerus -5.34356 16.04 -41.8927
rradius 46.2926
rwrist -4.54447
rhand -10.9714 -1103.94
rfingers 7.12502
rthumb 15.048 -53.3694
lclavicle 7.95139e-015 -1.82882e-014
lhumerus 33.7529 -26.14 61.7524
lradius 68.9368
lwrist 26.7293
lhand -34.6503 -359.61
lfingers 7.12502
lthumb -7.80725 -329.774
rfemur -125.106 -3.77695 31.4358
rtibia 122.697
rfoot -14.6188 -12.2078
rtoes 5.08424
lfemur -15.8636 -1.68004 -19.8907
ltibia 30.2922
lfoot 186.096 -164.627
ltoes -15.1343
562
root 7.08025 18.694 11.86 -342.079 4.80242 -2.63495
lowerback 21.1874 -1.9894 2.36555
upperback 5.90515 -1.57966 6.97119
thorax -5.24793 -0.792014 6.63003
lowerneck -16.6968 5.67877 6.11744
upperneck 12.3873 6.12567 0.451764
head 6.68571 3.28042 -0.183345
rclavicle 6.36111e-015 2.38542e-015
rhumerus -4.79405 16.6756 -40.8809
rradius 46.952
rwrist -5.24248
rhand -10.6908 -1103.96
rfingers 7.12502
rthumb 15.3184 -53.3697
lclavicle 6.36111e-015 2.38542e-015
lhumerus 36.9052 -26.7689 60.247
lradius 67.458
lwrist 25.3016
lhand -33.7704 -360.403
lfingers 7.12502
lthumb -6.95797 -330.537
rfemur -122.162 -3.84435 30.4008
rtibia 121.079
rfoot -15.746 -13.1131
rtoes 3.05514
lfemur -17.818 1.37545 -21.6187
ltibia 31.2421
lfoot 187.289 -167.209
ltoes -14.4766
